HIERARCHY
ROOT Hips
{
  OFFSET 5.72205e-005 65.662 3.42586
  CHANNELS 6 Xposition Yposition Zposition Zrotation Xrotation Yrotation
  JOINT Chest
  {
    OFFSET 0 8.7983 -4.7612
    CHANNELS 6 Xposition Yposition Zposition Zrotation Xrotation Yrotation
    JOINT Chest2
    {
      OFFSET 0 8.0291 0.4195
      CHANNELS 6 Xposition Yposition Zposition Zrotation Xrotation Yrotation
      JOINT Chest3
      {
        OFFSET 0 9.9351 -2.2114
        CHANNELS 6 Xposition Yposition Zposition Zrotation Xrotation Yrotation
        JOINT Neck
        {
          OFFSET 0 22.3885 -0.4656
          CHANNELS 6 Xposition Yposition Zposition Zrotation Xrotation Yrotation
          JOINT Head
          {
            OFFSET -0.0001 12.643 3.4389
            CHANNELS 6 Xposition Yposition Zposition Zrotation Xrotation Yrotation
            End Site
            {
              OFFSET 0.0001 17.6655 0.5274
            }
          }
        }
        JOINT LeftCollar
        {
          OFFSET 2.2603 21.606 7.4023
          CHANNELS 6 Xposition Yposition Zposition Zrotation Xrotation Yrotation
          JOINT LeftShoulder
          {
            OFFSET 13.5163 -1.1332 -5.0146
            CHANNELS 6 Xposition Yposition Zposition Zrotation Xrotation Yrotation
            JOINT LeftElbow
            {
              OFFSET -0.0995 -28.05 -0.2431
              CHANNELS 6 Xposition Yposition Zposition Zrotation Xrotation Yrotation
              JOINT LeftWrist
              {
                OFFSET 0.0679 -23.3996 -0.1402
                CHANNELS 6 Xposition Yposition Zposition Zrotation Xrotation Yrotation
                JOINT LeftFinger1
                {
                  OFFSET 0.7932 -9.069 2.5189
                  CHANNELS 6 Xposition Yposition Zposition Zrotation Xrotation Yrotation
                  JOINT LeftFinger11
                  {
                    OFFSET -0.8272 -3.3923 0.5977
                    CHANNELS 6 Xposition Yposition Zposition Zrotation Xrotation Yrotation
                    JOINT LeftFinger12
                    {
                      OFFSET -0.5649 -2.3158 0.4082
                      CHANNELS 6 Xposition Yposition Zposition Zrotation Xrotation Yrotation
                      End Site
                      {
                        OFFSET -0.4919 -1.6479 0.2673
                      }
                    }
                  }
                }
                JOINT LeftFinger2
                {
                  OFFSET 0.9159 -9.2044 0.2193
                  CHANNELS 6 Xposition Yposition Zposition Zrotation Xrotation Yrotation
                  JOINT LeftFinger21
                  {
                    OFFSET 0.0117 -4.1944 -0.0248
                    CHANNELS 6 Xposition Yposition Zposition Zrotation Xrotation Yrotation
                    JOINT LeftFinger22
                    {
                      OFFSET 0.0071 -2.3249 -0.0142
                      CHANNELS 6 Xposition Yposition Zposition Zrotation Xrotation Yrotation
                      End Site
                      {
                        OFFSET -0.1475 -2.0882 0.0028
                      }
                    }
                  }
                }
                JOINT LeftFinger3
                {
                  OFFSET 0.6113 -8.7231 -2.0637
                  CHANNELS 6 Xposition Yposition Zposition Zrotation Xrotation Yrotation
                  JOINT LeftFinger31
                  {
                    OFFSET -0.1927 -3.8059 -0.2383
                    CHANNELS 6 Xposition Yposition Zposition Zrotation Xrotation Yrotation
                    JOINT LeftFinger32
                    {
                      OFFSET -0.1091 -2.1688 -0.1362
                      CHANNELS 6 Xposition Yposition Zposition Zrotation Xrotation Yrotation
                      End Site
                      {
                        OFFSET -0.2358 -1.9176 -0.0906
                      }
                    }
                  }
                }
                JOINT LeftFinger4
                {
                  OFFSET -0.6151 -8.0947 -3.5641
                  CHANNELS 6 Xposition Yposition Zposition Zrotation Xrotation Yrotation
                  JOINT LeftFinger41
                  {
                    OFFSET -0.4882 -2.341 -0.6462
                    CHANNELS 6 Xposition Yposition Zposition Zrotation Xrotation Yrotation
                    JOINT LeftFinger42
                    {
                      OFFSET -0.3575 -1.7167 -0.4742
                      CHANNELS 6 Xposition Yposition Zposition Zrotation Xrotation Yrotation
                      End Site
                      {
                        OFFSET -0.4187 -1.5237 -0.3496
                      }
                    }
                  }
                }
                JOINT LeftFinger0
                {
                  OFFSET -1.42 -1.8761 1.4223
                  CHANNELS 6 Xposition Yposition Zposition Zrotation Xrotation Yrotation
                  JOINT LeftFinger01
                  {
                    OFFSET -1.1471 -3.4929 2.6334
                    CHANNELS 6 Xposition Yposition Zposition Zrotation Xrotation Yrotation
                    JOINT LeftFinger02
                    {
                      OFFSET -0.823 -2.3 1.6571
                      CHANNELS 6 Xposition Yposition Zposition Zrotation Xrotation Yrotation
                      End Site
                      {
                        OFFSET -0.5822 -1.6914 1.1582
                      }
                    }
                  }
                }
              }
            }
          }
        }
        JOINT RightCollar
        {
          OFFSET -2.2603 21.606 7.4023
          CHANNELS 6 Xposition Yposition Zposition Zrotation Xrotation Yrotation
          JOINT RightShoulder
          {
            OFFSET -13.5187 -1.1334 -5.0155
            CHANNELS 6 Xposition Yposition Zposition Zrotation Xrotation Yrotation
            JOINT RightElbow
            {
              OFFSET 0.0994 -28.0499 -0.2431
              CHANNELS 6 Xposition Yposition Zposition Zrotation Xrotation Yrotation
              JOINT RightWrist
              {
                OFFSET -0.0679 -23.3996 -0.1402
                CHANNELS 6 Xposition Yposition Zposition Zrotation Xrotation Yrotation
                JOINT RightFinger1
                {
                  OFFSET -0.7932 -9.0691 2.5189
                  CHANNELS 6 Xposition Yposition Zposition Zrotation Xrotation Yrotation
                  JOINT RightFinger11
                  {
                    OFFSET 0.8272 -3.3923 0.5977
                    CHANNELS 6 Xposition Yposition Zposition Zrotation Xrotation Yrotation
                    JOINT RightFinger12
                    {
                      OFFSET 0.565 -2.3158 0.4082
                      CHANNELS 6 Xposition Yposition Zposition Zrotation Xrotation Yrotation
                      End Site
                      {
                        OFFSET 0.4919 -1.6479 0.2673
                      }
                    }
                  }
                }
                JOINT RightFinger2
                {
                  OFFSET -0.916 -9.2044 0.2193
                  CHANNELS 6 Xposition Yposition Zposition Zrotation Xrotation Yrotation
                  JOINT RightFinger21
                  {
                    OFFSET -0.0117 -4.1944 -0.0248
                    CHANNELS 6 Xposition Yposition Zposition Zrotation Xrotation Yrotation
                    JOINT RightFinger22
                    {
                      OFFSET -0.0071 -2.3249 -0.0142
                      CHANNELS 6 Xposition Yposition Zposition Zrotation Xrotation Yrotation
                      End Site
                      {
                        OFFSET 0.1475 -2.0882 0.0028
                      }
                    }
                  }
                }
                JOINT RightFinger3
                {
                  OFFSET -0.6113 -8.7231 -2.0637
                  CHANNELS 6 Xposition Yposition Zposition Zrotation Xrotation Yrotation
                  JOINT RightFinger31
                  {
                    OFFSET 0.1927 -3.8059 -0.2383
                    CHANNELS 6 Xposition Yposition Zposition Zrotation Xrotation Yrotation
                    JOINT RightFinger32
                    {
                      OFFSET 0.1091 -2.1688 -0.1362
                      CHANNELS 6 Xposition Yposition Zposition Zrotation Xrotation Yrotation
                      End Site
                      {
                        OFFSET 0.2358 -1.9176 -0.0906
                      }
                    }
                  }
                }
                JOINT RightFinger4
                {
                  OFFSET 0.6151 -8.0947 -3.564
                  CHANNELS 6 Xposition Yposition Zposition Zrotation Xrotation Yrotation
                  JOINT RightFinger41
                  {
                    OFFSET 0.4882 -2.341 -0.6462
                    CHANNELS 6 Xposition Yposition Zposition Zrotation Xrotation Yrotation
                    JOINT RightFinger42
                    {
                      OFFSET 0.3574 -1.7166 -0.4742
                      CHANNELS 6 Xposition Yposition Zposition Zrotation Xrotation Yrotation
                      End Site
                      {
                        OFFSET 0.4187 -1.5237 -0.3496
                      }
                    }
                  }
                }
                JOINT RightFinger0
                {
                  OFFSET 1.4199 -1.8761 1.4221
                  CHANNELS 6 Xposition Yposition Zposition Zrotation Xrotation Yrotation
                  JOINT RightFinger01
                  {
                    OFFSET 1.1472 -3.4929 2.6336
                    CHANNELS 6 Xposition Yposition Zposition Zrotation Xrotation Yrotation
                    JOINT RightFinger02
                    {
                      OFFSET 0.8229 -2.3 1.6571
                      CHANNELS 6 Xposition Yposition Zposition Zrotation Xrotation Yrotation
                      End Site
                      {
                        OFFSET 0.5822 -1.6914 1.1582
                      }
                    }
                  }
                }
              }
            }
          }
        }
      }
    }
  }
  JOINT RightHip
  {
    OFFSET -9.412 3.9771 -0.7758
    CHANNELS 6 Xposition Yposition Zposition Zrotation Xrotation Yrotation
    JOINT RightKnee
    {
      OFFSET -0.7531 -40.938 0
      CHANNELS 6 Xposition Yposition Zposition Zrotation Xrotation Yrotation
      JOINT RightAnkle
      {
        OFFSET 0 -40.1986 0
        CHANNELS 6 Xposition Yposition Zposition Zrotation Xrotation Yrotation
        JOINT RightToe
        {
          OFFSET 0 -4.4182 9.239
          CHANNELS 6 Xposition Yposition Zposition Zrotation Xrotation Yrotation
          End Site
          {
            OFFSET 0 0 6.1981
          }
        }
      }
    }
  }
  JOINT LeftHip
  {
    OFFSET 9.4119 3.9773 -0.7758
    CHANNELS 6 Xposition Yposition Zposition Zrotation Xrotation Yrotation
    JOINT LeftKnee
    {
      OFFSET 0.7532 -40.9383 0
      CHANNELS 6 Xposition Yposition Zposition Zrotation Xrotation Yrotation
      JOINT LeftAnkle
      {
        OFFSET 0 -40.1986 0
        CHANNELS 6 Xposition Yposition Zposition Zrotation Xrotation Yrotation
        JOINT LeftToe
        {
          OFFSET 0 -4.4182 9.239
          CHANNELS 6 Xposition Yposition Zposition Zrotation Xrotation Yrotation
          End Site
          {
            OFFSET 0 0 6.1981
          }
        }
      }
    }
  }
}
MOTION
Frames:	4
Frame Time:	0.0333333
5.72205e-005 65.662 3.42586 0 0 -0 0 8.7983 -4.7612 0 0 -0 0 8.0291 0.4195 0 0 -0 0 9.9351 -2.2114 0 0 -0 0 22.3885 -0.4656 0 0 -0 -0.0001 12.643 3.4389 0 0 -0 2.2603 21.606 7.4023 0 0 -12.5014 13.5163 -1.1332 -5.0146 88.1196 14.2451 10.6914 -0.0995 -28.05 -0.2431 -0.00160068 -0.00239207 0.000740045 0.0679 -23.3996 -0.1402 -8.4365e-005 7.00714e-005 -9.52055e-007 0.7932 -9.069 2.5189 9.93923e-017 -1.98785e-016 -1.59028e-015 -0.8272 -3.3923 0.5977 9.93923e-017 -5.96354e-016 -1.59028e-015 -0.5649 -2.3158 0.4082 -9.93923e-017 -5.96354e-016 -1.59028e-015 0.9159 -9.2044 0.2193 9.93923e-017 -1.98785e-016 -1.59028e-015 0.0117 -4.1944 -0.0248 -0.0128176 0.00232552 8.52707e-005 0.0071 -2.3249 -0.0142 9.93923e-017 5.96354e-016 -0 0.6113 -8.7231 -2.0637 9.93923e-017 -1.98785e-016 -1.59028e-015 -0.1927 -3.8059 -0.2383 -0.0160551 0.00299681 0.000857156 -0.1091 -2.1688 -0.1362 -2.48481e-016 0 3.18055e-015 -0.6151 -8.0947 -3.5641 9.93923e-017 -1.98785e-016 -1.59028e-015 -0.4882 -2.341 -0.6462 -0.0125865 0.0031206 0.00282719 -0.3575 -1.7167 -0.4742 0 1.98785e-016 -0 -1.42 -1.8761 1.4223 9.93923e-017 -1.98785e-016 -1.59028e-015 -1.1471 -3.4929 2.6334 9.93923e-017 -5.96354e-016 -1.59028e-015 -0.823 -2.3 1.6571 -9.93923e-017 -5.96354e-016 -1.59028e-015 -2.2603 21.606 7.4023 -0.865644 0.16582 7.03859 -13.5187 -1.1334 -5.0155 -88.0329 10.2057 -10.5567 0.0994 -28.0499 -0.2431 0.0015593 -0.00248883 -0.000788628 -0.0679 -23.3996 -0.1402 7.87605e-005 4.10553e-005 1.24965e-005 -0.7932 -9.0691 2.5189 -3.97569e-016 -7.95139e-016 3.18055e-015 0.8272 -3.3923 0.5977 -1.98785e-016 -3.97569e-016 3.18055e-015 0.565 -2.3158 0.4082 -1.98785e-016 0 3.18055e-015 -0.916 -9.2044 0.2193 -3.97569e-016 -7.95139e-016 3.18055e-015 -0.0117 -4.1944 -0.0248 0.0129473 0.00231697 -8.70038e-005 -0.0071 -2.3249 -0.0142 9.93923e-017 -7.95139e-016 1.59028e-015 -0.6113 -8.7231 -2.0637 -3.97569e-016 -7.95139e-016 3.18055e-015 0.1927 -3.8059 -0.2383 0.0163314 0.00303369 -0.000872333 0.1091 -2.1688 -0.1362 3.97569e-016 7.95139e-016 -3.18055e-015 0.6151 -8.0947 -3.564 -3.97569e-016 -7.95139e-016 3.18055e-015 0.4882 -2.341 -0.6462 0.0145763 0.00367772 -0.00326275 0.3574 -1.7166 -0.4742 9.93923e-017 -3.97569e-016 -0 1.4199 -1.8761 1.4221 -3.97569e-016 -7.95139e-016 3.18055e-015 1.1472 -3.4929 2.6336 -1.98785e-016 -3.97569e-016 3.18055e-015 0.8229 -2.3 1.6571 -1.98785e-016 0 3.18055e-015 -9.412 3.9771 -0.7758 3.42482 1.32465 -0.0626183 -0.7531 -40.938 0 0.000117508 0.717283 0.000978199 0 -40.1986 0 -3.4257 -2.04197 -0.0604716 8.88178e-016 -4.4182 9.239 6.47761e-025 0 -0 9.4119 3.9773 -0.7758 -3.42483 1.34017 0.0627307 0.7532 -40.9383 -2.22045e-016 -0.000193936 0.682302 -0.0013703 -8.88179e-016 -40.1986 0 3.42574 -2.02253 0.0595886 -8.88178e-016 -4.4182 9.239 -8.45714e-024 0 -7.40531e-025 
-20.5459 16.3451 -18.2672 -66.6648 66.7347 -0.00341951 3.55271e-015 8.7983 -4.7612 7.7316 3.32329 2.18621 -3.55271e-015 8.0291 0.4195 15.3724 6.90895 3.91433 3.55271e-015 9.9351 -2.2114 15.3725 6.90896 3.91433 -3.55271e-015 22.3885 -0.4656 20.1714 -0.501055 -5.62074 -0.0001 12.643 3.4389 0.799246 -1.34506 -21.67 2.2603 21.606 7.4023 1.08532 0.669952 7.49826 13.5163 -1.1332 -5.0146 77.1067 -4.52732 -14.7485 -0.0995 -28.05 -0.2431 65.596 -43.8504 44.265 0.0679 -23.3996 -0.1402 14.2506 6.39175 0.0714328 0.7932 -9.069 2.5189 -3.18055e-015 9.54166e-015 -3.18055e-015 -0.8272 -3.3923 0.5977 -1.76556e-031 1.27222e-014 7.95139e-016 -0.5649 -2.3158 0.4082 -2.20695e-031 1.59028e-014 7.95139e-016 0.9159 -9.2044 0.2193 -3.18055e-015 9.54166e-015 -3.18055e-015 0.0117 -4.1944 -0.0248 -0.0128719 0.00233398 7.87715e-005 0.0071 -2.3249 -0.0142 -6.36111e-015 -1.27222e-014 9.54166e-015 0.6113 -8.7231 -2.0637 -3.18055e-015 9.54166e-015 -3.18055e-015 -0.1927 -3.8059 -0.2383 -0.016071 0.00301236 0.00085724 -0.1091 -2.1688 -0.1362 1.49108e-006 2.71085e-006 -6.17483e-007 -0.6151 -8.0947 -3.5641 -3.18055e-015 9.54166e-015 -3.18055e-015 -0.4882 -2.341 -0.6462 -0.0126044 0.00312452 0.00281689 -0.3575 -1.7167 -0.4742 3.18055e-015 0 -7.95139e-016 -1.42 -1.8761 1.4223 -3.18055e-015 9.54166e-015 -3.18055e-015 -1.1471 -3.4929 2.6334 -1.76556e-031 1.27222e-014 7.95139e-016 -0.823 -2.3 1.6571 -2.20695e-031 1.59028e-014 7.95139e-016 -2.2603 21.606 7.4023 13.3632 6.11962 4.96473 -13.5187 -1.1334 -5.0155 -58.7635 38.3946 -57.4659 0.0994 -28.0499 -0.2431 27.5659 4.73625 -3.65316 -0.0679 -23.3996 -0.1402 19.9724 5.14291 -1.71289 -0.7932 -9.0691 2.5189 -6.16093e-006 -2.98342e-006 1.49159e-006 0.8272 -3.3923 0.5977 4.41391e-032 -3.18055e-015 7.95139e-016 0.565 -2.3158 0.4082 -0 0 3.18055e-015 -0.916 -9.2044 0.2193 -6.16093e-006 -2.98342e-006 1.49159e-006 -0.0117 -4.1944 -0.0248 0.0129264 0.00231662 -8.47981e-005 -0.0071 -2.3249 -0.0142 1.62863e-006 1.15757e-005 -1.35306e-005 -0.6113 -8.7231 -2.0637 -6.16093e-006 -2.98342e-006 1.49159e-006 0.1927 -3.8059 -0.2383 0.0164086 0.00305438 -0.000881227 0.1091 -2.1688 -0.1362 3.18055e-015 4.77083e-015 1.03368e-014 0.6151 -8.0947 -3.564 -6.16093e-006 -2.98342e-006 1.49159e-006 0.4882 -2.341 -0.6462 0.0146056 0.0036793 -0.00325805 0.3574 -1.7166 -0.4742 -3.18055e-015 -1.59028e-015 7.95139e-015 1.4199 -1.8761 1.4221 -6.16093e-006 -2.98342e-006 1.49159e-006 1.1472 -3.4929 2.6336 4.41391e-032 -3.18055e-015 7.95139e-016 0.8229 -2.3 1.6571 -0 0 3.18055e-015 -9.412 3.9771 -0.7758 -13.8063 -69.1044 2.59965 -0.7531 -40.938 0 40.4407 40.7686 -48.4812 0 -40.1986 -7.10543e-015 8.96617 1.9013 12.1773 0 -4.4182 9.239 -1.0636e-005 -5.67499e-006 -1.74608e-006 9.4119 3.9773 -0.7758 -8.66776 -50.9316 10.6943 0.7532 -40.9383 -1.77636e-015 12.6271 48.2502 -12.4415 0 -40.1986 7.10543e-015 -0.829081 8.41289 -1.95861 3.55271e-015 -4.4182 9.239 -2.91593e-006 -5.67666e-006 -1.74808e-006 
-23.2064 -5.41908 -26.4937 83.3164 83.5394 -179.985 1.77636e-015 8.7983 -4.7612 11.0642 4.68005 3.3449 0 8.0291 0.4195 21.9588 9.91065 5.75434 8.88178e-016 9.9351 -2.2114 21.9588 9.91063 5.75436 -3.9968e-015 22.3885 -0.4656 29.0738 -0.821354 -8.12377 -0.0001 12.643 3.4389 0.829583 -1.93132 -31.4272 2.2603 21.606 7.4023 1.54027 0.986212 17.1152 13.5163 -1.1332 -5.0146 72.7893 -13.2819 -25.8922 -0.0995 -28.05 -0.2431 102.57 -59.5523 69.6196 0.0679 -23.3996 -0.1402 20.5714 9.34557 0.231579 0.7932 -9.069 2.5189 4.96962e-016 -3.97569e-016 -3.18055e-015 -0.8272 -3.3923 0.5977 -1.09332e-015 0 -0 -0.5649 -2.3158 0.4082 -9.93923e-016 -3.97569e-016 -3.18055e-015 0.9159 -9.2044 0.2193 4.96962e-016 -3.97569e-016 -3.18055e-015 0.0117 -4.1944 -0.0248 -0.0128309 0.00232703 8.89366e-005 0.0071 -2.3249 -0.0142 1.22253e-014 -2.78299e-015 -0 0.6113 -8.7231 -2.0637 4.96962e-016 -3.97569e-016 -3.18055e-015 -0.1927 -3.8059 -0.2383 -0.0160361 0.00299308 0.000858917 -0.1091 -2.1688 -0.1362 9.93923e-016 -7.95139e-016 3.18055e-015 -0.6151 -8.0947 -3.5641 4.96962e-016 -3.97569e-016 -3.18055e-015 -0.4882 -2.341 -0.6462 -0.0125658 0.00311569 0.00282627 -0.3575 -1.7167 -0.4742 -9.93923e-017 0 3.18055e-015 -1.42 -1.8761 1.4223 4.96962e-016 -3.97569e-016 -3.18055e-015 -1.1471 -3.4929 2.6334 -1.09332e-015 0 -0 -0.823 -2.3 1.6571 -9.93923e-016 -3.97569e-016 -3.18055e-015 -2.2603 21.606 7.4023 19.0324 8.70362 4.76155 -13.5187 -1.1334 -5.0155 -43.5845 50.2962 -80.3883 0.0994 -28.0499 -0.2431 37.9326 6.23921 2.0777 -0.0679 -23.3996 -0.1402 28.518 7.24589 -3.00942 -0.7932 -9.0691 2.5189 -3.23908e-006 2.18126e-007 -1.91372e-007 0.8272 -3.3923 0.5977 4.03992e-007 -5.77197e-008 7.52141e-007 0.565 -2.3158 0.4082 -4.03992e-007 5.77197e-008 -7.52141e-007 -0.916 -9.2044 0.2193 -3.23908e-006 2.18126e-007 -1.91372e-007 -0.0117 -4.1944 -0.0248 0.0129541 0.00232279 -8.77172e-005 -0.0071 -2.3249 -0.0142 -2.01981e-007 5.77118e-008 -3.76079e-007 -0.6113 -8.7231 -2.0637 -3.23908e-006 2.18126e-007 -1.91372e-007 0.1927 -3.8059 -0.2383 0.0163223 0.00303679 -0.000871011 0.1091 -2.1688 -0.1362 -8.07903e-007 -1.36854e-006 -1.50432e-006 0.6151 -8.0947 -3.564 -3.23908e-006 2.18126e-007 -1.91372e-007 0.4882 -2.341 -0.6462 0.0145968 0.00368782 -0.00326584 0.3574 -1.7166 -0.4742 -2.01972e-007 -1.48397e-006 -3.76083e-007 1.4199 -1.8761 1.4221 -3.23908e-006 2.18126e-007 -1.91372e-007 1.1472 -3.4929 2.6336 4.03992e-007 -5.77197e-008 7.52141e-007 0.8229 -2.3 1.6571 -4.03992e-007 5.77197e-008 -7.52141e-007 -9.412 3.9771 -0.7758 142.082 -79.356 168.612 -0.7531 -40.938 0 75.6915 39.1054 -78.1077 0 -40.1986 -7.10543e-015 13.6572 4.32745 18.2477 7.10543e-015 -4.4182 9.239 9.2713e-006 2.21421e-006 -2.12873e-006 9.4119 3.9773 -0.7758 7.49802 -71.8021 32.079 0.7532 -40.9383 -3.55271e-015 35.9683 66.9155 -33.5091 0 -40.1986 0 -2.30722 12.782 -2.64908 0 -4.4182 9.239 -4.73455e-006 -3.97799e-006 -1.66456e-006 
-22.9696 -0.234406 -24.9617 -89.934 89.1776 -0.0685229 -2.77556e-017 8.7983 -4.7612 10.3125 4.65913 2.82576 0 8.0291 0.4195 20.4934 9.74596 4.79122 8.88179e-016 9.9351 -2.2114 20.4934 9.74596 4.79122 -1.77636e-015 22.3885 -0.4656 26.7841 -0.969827 -7.50841 -0.0001 12.643 3.4389 0.831543 -2.13533 -29.253 2.2603 21.606 7.4023 1.70698 1.11002 16.3458 13.5163 -1.1332 -5.0146 73.705 -11.3259 -23.4418 -0.0995 -28.05 -0.2431 92.9825 -56.3622 62.8829 0.0679 -23.3996 -0.1402 19.173 8.68389 0.189084 0.7932 -9.06901 2.5189 2.29523e-030 2.06736e-014 -6.36111e-015 -0.8272 -3.3923 0.5977 -4.64028e-007 -1.2435e-007 1.55782e-006 -0.5649 -2.3158 0.4082 7.95139e-016 -4.77083e-015 6.36111e-015 0.9159 -9.20441 0.2193 2.29523e-030 2.06736e-014 -6.36111e-015 0.0117 -4.1944 -0.0248 -0.0128349 0.00233299 8.53332e-005 0.0071 -2.3249 -0.0142 1.59028e-015 -4.77083e-015 -9.54166e-015 0.6113 -8.7231 -2.0637 2.29523e-030 2.06736e-014 -6.36111e-015 -0.1927 -3.8059 -0.2383 -0.0160521 0.00299985 0.000858254 -0.1091 -2.1688 -0.1362 7.95139e-016 -9.54166e-015 -6.36111e-015 -0.6151 -8.0947 -3.5641 2.29523e-030 2.06736e-014 -6.36111e-015 -0.4882 -2.341 -0.6462 -0.0125779 0.00311972 0.00282458 -0.3575 -1.7167 -0.4742 1.59028e-015 -3.18055e-015 -0 -1.42 -1.8761 1.4223 2.29523e-030 2.06736e-014 -6.36111e-015 -1.1471 -3.4929 2.6334 -4.64028e-007 -1.2435e-007 1.55782e-006 -0.823 -2.3 1.6571 7.95139e-016 -4.77083e-015 6.36111e-015 -2.2603 21.606 7.4023 15.8415 7.91843 6.46785 -13.5187 -1.1334 -5.0155 -46.8508 48.0409 -75.2562 0.0994 -28.0499 -0.2431 36.7149 6.07471 2.06007 -0.0679 -23.3996 -0.1402 25.5049 6.59742 -2.75243 -0.7932 -9.0691 2.5189 -1.59028e-015 -3.18055e-015 1.59028e-015 0.8272 -3.3923 0.5977 -4.63491e-006 1.05835e-006 1.6804e-006 0.565 -2.3158 0.4082 -1.5782e-006 -2.48346e-006 -1.99548e-006 -0.916 -9.2044 0.2193 -1.59028e-015 -3.18055e-015 1.59028e-015 -0.0117 -4.1944 -0.0248 0.0129796 0.00231818 -9.38938e-005 -0.0071 -2.3249 -0.0142 3.97569e-015 -3.18055e-015 6.36111e-015 -0.6113 -8.7231 -2.0637 -1.59028e-015 -3.18055e-015 1.59028e-015 0.1927 -3.8059 -0.2383 0.0163536 0.00304234 -0.000873447 0.1091 -2.1688 -0.1362 4.41391e-031 6.36111e-015 -3.97569e-015 0.6151 -8.0947 -3.564 -1.59028e-015 -3.18055e-015 1.59028e-015 0.4882 -2.341 -0.6462 0.0145702 0.00368078 -0.00325904 0.3574 -1.7166 -0.4742 -7.06565e-006 -3.33201e-006 3.34598e-006 1.4199 -1.8761 1.4221 -1.59028e-015 -3.18055e-015 1.59028e-015 1.1472 -3.4929 2.6336 -4.63491e-006 1.05835e-006 1.6804e-006 0.8229 -2.3 1.6571 -1.5782e-006 -2.48346e-006 -1.99548e-006 -9.412 3.9771 -0.7758 120.74 -86.1717 145.142 -0.7531 -40.938 0 67.9527 40.722 -72.0718 0 -40.1986 -2.13163e-014 12.896 3.73238 16.5394 0 -4.4182 9.239 -7.06225e-031 -6.36111e-015 -6.36111e-015 9.4119 3.9773 -0.7758 0.396315 -67.1961 23.8525 0.7532 -40.9383 3.55271e-015 28.8568 63.6099 -26.9579 0 -40.1986 -7.10543e-015 -2.11219 11.6393 -2.38993 1.77636e-015 -4.4182 9.239 -1.59028e-015 1.59028e-015 -7.95139e-016 
